<?xml version="1.0" standalone="no"?>
<!DOCTYPE svg PUBLIC "-//W3C//DTD SVG 20010904//EN"
 "http://www.w3.org/TR/2001/REC-SVG-20010904/DTD/svg10.dtd">
<svg version="1.0" xmlns="http://www.w3.org/2000/svg"
 width="1280.000000pt" height="1280.000000pt" viewBox="0 0 1280.000000 1280.000000"
 preserveAspectRatio="xMidYMid meet">
<metadata>
Created by potrace 1.14, written by Peter Selinger 2001-2017
</metadata>
<g transform="translate(0.000000,1280.000000) scale(0.100000,-0.100000)"
fill="#000000" stroke="none">
<path d="M7956 12443 c-10 -10 -15 -12 -11 -5 6 11 2 11 -21 0 -16 -8 -39 -13
-51 -12 -12 0 -20 -2 -18 -7 3 -4 -4 -11 -16 -14 -12 -4 -35 -20 -50 -36 -16
-16 -33 -29 -39 -29 -6 0 -8 -4 -5 -10 3 -5 1 -10 -4 -10 -6 0 -11 -7 -11 -16
0 -10 -5 -14 -15 -10 -13 4 -14 2 -5 -14 9 -16 8 -18 -5 -14 -10 4 -15 0 -15
-14 0 -12 -5 -24 -10 -27 -6 -4 -8 -11 -5 -16 4 -5 -2 -9 -12 -9 -15 0 -16 -2
-3 -10 13 -8 12 -10 -3 -10 -10 0 -15 -4 -12 -10 8 -13 -19 -52 -31 -42 -4 4
-2 -1 5 -10 11 -15 11 -19 -3 -24 -9 -3 -13 -10 -10 -15 3 -5 2 -9 -3 -9 -4 0
-13 -11 -20 -25 -8 -19 -8 -24 0 -19 7 3 4 -1 -7 -10 -10 -8 -15 -19 -12 -24
9 -15 -36 -40 -67 -36 -15 1 -25 -1 -22 -6 3 -4 -10 -5 -28 0 -18 4 -43 5 -55
4 -12 -2 -22 0 -22 5 0 5 -8 8 -17 6 -10 -1 -25 4 -35 12 -10 9 -18 11 -22 4
-4 -7 -20 -3 -42 10 -19 10 -39 17 -45 14 -5 -4 -9 0 -9 7 0 10 -2 10 -9 -1
-6 -9 -11 -10 -15 -2 -4 6 -12 9 -17 6 -5 -4 -9 -1 -9 6 0 8 -4 8 -15 -1 -8
-7 -15 -9 -15 -4 0 5 -11 10 -25 10 -14 1 -25 -3 -25 -10 0 -6 -5 -4 -10 4 -8
12 -13 13 -30 2 -16 -10 -20 -10 -20 0 0 9 -3 8 -10 -2 -8 -13 -10 -13 -10 -1
0 12 -3 12 -12 3 -7 -7 -22 -12 -34 -12 -13 0 -26 -5 -29 -11 -4 -6 -13 -8
-20 -5 -7 2 -16 -2 -19 -11 -4 -8 -12 -13 -20 -10 -7 3 -19 -3 -26 -13 -8 -11
-17 -17 -21 -14 -4 2 -16 -7 -27 -21 -11 -14 -24 -25 -30 -25 -6 0 -16 -13
-23 -29 -10 -22 -17 -27 -25 -20 -9 7 -12 4 -10 -15 2 -17 -1 -23 -11 -19 -8
3 -13 0 -11 -8 2 -8 -3 -13 -10 -11 -8 1 -11 -2 -7 -7 3 -6 -3 -18 -14 -28
-11 -9 -17 -21 -14 -26 3 -6 1 -7 -5 -3 -7 4 -12 2 -12 -4 0 -6 -5 -8 -12 -4
-7 5 -9 2 -6 -8 6 -14 -28 -45 -44 -40 -5 1 -7 -1 -7 -6 3 -20 -2 -32 -13 -29
-7 1 -12 -4 -11 -10 2 -7 -1 -13 -5 -13 -5 0 -17 -7 -28 -16 -10 -8 -12 -13
-4 -9 8 4 6 0 -5 -9 -11 -8 -26 -20 -32 -26 -7 -6 -13 -7 -13 -3 -1 4 -7 -3
-15 -17 -8 -14 -14 -21 -15 -15 0 5 -7 -1 -16 -14 -13 -18 -18 -20 -25 -10 -6
10 -9 11 -9 2 0 -7 -12 -13 -26 -13 -14 0 -23 4 -19 10 8 13 -1 13 -27 -1 -16
-8 -22 -8 -29 2 -6 10 -10 10 -23 0 -11 -9 -16 -10 -16 -2 0 6 -5 11 -11 11
-5 0 -7 -6 -3 -12 4 -7 -3 -4 -16 7 -13 11 -20 14 -16 8 10 -19 -4 -16 -27 5
-11 9 -17 11 -13 5 4 -7 2 -13 -3 -13 -6 0 -11 3 -11 8 0 4 -10 13 -21 21 -20
12 -21 11 -15 -5 6 -17 6 -17 -12 -1 -10 9 -24 17 -30 17 -7 0 -12 4 -12 9 0
5 -8 8 -17 7 -10 0 -17 5 -15 12 1 7 -3 12 -10 11 -26 -3 -39 1 -33 11 3 6 -2
10 -11 10 -10 0 -15 3 -12 6 4 3 -2 14 -13 25 -10 10 -19 28 -19 40 0 11 -4
17 -10 14 -9 -5 -15 15 -11 38 0 4 -5 7 -11 8 -7 0 -23 2 -35 3 -12 1 -21 -2
-20 -8 1 -6 -4 -10 -11 -8 -6 1 -11 -4 -10 -10 2 -7 -2 -12 -8 -11 -6 1 -10
-11 -9 -28 1 -16 0 -27 -3 -24 -8 8 -43 -55 -37 -66 4 -5 2 -9 -4 -9 -6 0 -8
-7 -5 -15 4 -9 0 -15 -7 -15 -11 0 -11 -3 1 -10 11 -7 11 -10 2 -10 -7 0 -10
-5 -7 -10 4 -6 1 -17 -5 -25 -10 -11 -10 -15 -1 -15 7 0 9 -5 4 -12 -12 -20
-12 -38 0 -38 6 0 2 -7 -9 -16 -10 -8 -14 -13 -8 -10 7 3 14 -3 17 -14 3 -13
1 -18 -5 -13 -7 3 -8 1 -4 -5 12 -20 17 -54 18 -124 0 -43 5 -68 12 -68 7 0 6
-3 -2 -8 -13 -9 -7 -42 8 -42 5 0 6 -9 3 -20 -3 -13 0 -20 8 -20 11 0 11 -2
-1 -10 -8 -5 -10 -10 -4 -10 7 0 14 -15 17 -32 3 -18 8 -44 13 -57 6 -19 4
-23 -7 -17 -8 4 -5 0 5 -8 15 -12 16 -16 5 -16 -8 0 -10 -3 -4 -8 12 -9 18
-32 8 -31 -18 3 -27 -2 -17 -9 7 -4 1 -17 -19 -37 -17 -16 -24 -21 -17 -10 12
17 12 18 0 7 -8 -7 -15 -20 -15 -30 0 -9 -6 -16 -13 -14 -8 1 -11 -2 -7 -8 3
-5 1 -10 -4 -10 -6 0 -11 -5 -11 -11 0 -5 6 -7 13 -3 6 4 4 -2 -6 -13 -11 -12
-16 -31 -13 -51 2 -20 0 -29 -7 -25 -6 4 -8 0 -4 -9 3 -9 0 -27 -8 -41 -9 -18
-10 -28 -2 -36 8 -8 8 -11 -1 -11 -7 0 -12 -8 -10 -17 2 -11 -2 -17 -10 -15
-8 1 -11 -2 -8 -7 4 -5 -1 -17 -11 -26 -12 -12 -17 -35 -17 -81 -1 -35 -5 -64
-11 -64 -5 0 -4 -4 4 -9 10 -7 11 -13 1 -31 -10 -18 -10 -21 2 -14 10 6 11 4
3 -7 -6 -8 -11 -31 -10 -51 0 -21 -3 -38 -8 -38 -4 0 -5 -4 -2 -10 3 -5 3 -16
-1 -22 -13 -20 -12 -52 0 -67 8 -11 8 -13 -1 -7 -9 5 -13 -2 -14 -26 -2 -49
-5 -74 -12 -93 -4 -10 -3 -14 4 -9 7 4 7 -2 -1 -16 -9 -18 -9 -24 0 -30 8 -5
9 -10 2 -14 -11 -7 -9 -37 4 -58 4 -6 3 -8 -4 -4 -7 4 -10 -6 -9 -29 1 -19 6
-35 11 -35 5 0 4 -6 -3 -13 -8 -10 -7 -17 1 -25 9 -9 9 -12 -2 -12 -12 0 -12
-2 -2 -9 8 -4 14 -12 14 -16 0 -4 -6 -12 -14 -16 -8 -6 -9 -9 -1 -9 6 0 9 -9
5 -22 -4 -16 -2 -19 9 -13 12 8 12 6 0 -8 -11 -14 -11 -17 0 -17 11 0 11 -2
-1 -10 -12 -8 -12 -10 -1 -10 8 0 12 -3 8 -6 -3 -3 -1 -11 4 -18 50 -59 107
-168 79 -151 -10 6 -8 -15 3 -32 5 -7 4 -13 -1 -13 -5 0 -9 -7 -9 -15 0 -8 4
-15 9 -15 11 0 6 -23 -7 -32 -6 -5 -5 -8 3 -8 10 0 10 -5 2 -20 -6 -11 -7 -20
-1 -20 12 0 9 -33 -4 -42 -6 -5 -5 -8 4 -8 10 0 11 -3 2 -14 -8 -10 -9 -16 -2
-21 11 -6 10 -40 -2 -51 -4 -4 -2 -13 4 -21 9 -10 8 -13 -1 -13 -10 0 -10 -3
0 -15 10 -12 10 -15 -1 -15 -12 0 -12 -2 0 -9 9 -6 10 -11 2 -15 -9 -6 -2 -34
13 -52 1 0 -5 -8 -13 -17 -10 -13 -10 -17 -1 -17 8 0 9 -4 4 -12 -11 -16 -11
-39 -1 -55 5 -7 4 -13 0 -13 -5 0 -8 -15 -8 -32 1 -18 -2 -41 -7 -50 -5 -11
-3 -22 8 -32 8 -9 11 -16 5 -16 -7 0 -6 -12 4 -35 8 -22 10 -33 3 -29 -7 4 -8
3 -4 -4 4 -7 10 -22 12 -34 17 -72 17 -71 3 -63 -8 5 -7 0 4 -12 9 -11 14 -23
10 -26 -3 -4 -1 -7 5 -7 7 0 12 -5 12 -11 0 -5 -4 -8 -9 -4 -5 3 -3 -8 5 -24
8 -17 17 -40 19 -52 2 -11 10 -28 17 -37 10 -12 10 -14 1 -8 -7 4 -13 2 -13
-3 0 -6 5 -11 11 -11 6 0 9 -7 5 -15 -3 -8 -1 -15 5 -15 6 0 8 -4 4 -9 -3 -5
0 -13 6 -16 5 -4 8 -13 5 -20 -3 -8 2 -19 10 -26 8 -7 13 -18 10 -24 -2 -7 1
-18 7 -24 8 -8 7 -11 -3 -11 -10 0 -8 -4 5 -13 10 -8 15 -19 12 -24 -4 -6 -1
-13 7 -16 8 -3 12 -16 11 -31 -2 -14 3 -30 11 -37 12 -9 12 -15 2 -27 -10 -13
-10 -14 0 -8 11 6 14 -3 11 -30 0 -3 8 -12 18 -20 10 -7 14 -14 10 -14 -4 0
-3 -9 3 -20 7 -12 16 -18 23 -13 7 4 6 0 -2 -10 -12 -15 -12 -17 4 -11 11 5
16 3 12 -3 -7 -12 29 -73 43 -73 6 0 8 -5 5 -10 -3 -6 1 -13 10 -16 13 -6 14
-8 3 -15 -9 -6 -7 -9 9 -9 16 0 21 -4 17 -15 -4 -8 -1 -15 6 -15 6 0 8 -4 5
-10 -3 -5 1 -10 9 -10 9 0 15 -3 15 -7 -3 -21 2 -33 16 -33 8 0 15 -7 15 -15
0 -8 5 -15 11 -15 5 0 8 -4 5 -9 -3 -5 1 -11 9 -15 8 -3 15 -12 15 -21 0 -8 4
-15 10 -15 5 0 7 -7 4 -15 -4 -8 1 -17 10 -21 9 -3 16 -12 16 -20 0 -8 7 -14
16 -14 10 0 14 -5 10 -16 -3 -8 -2 -12 4 -9 6 3 10 1 10 -4 0 -6 7 -11 16 -11
8 0 12 -4 9 -10 -3 -5 -1 -10 4 -10 6 0 11 -7 11 -16 0 -8 5 -12 10 -9 6 3 10
0 10 -7 0 -7 14 -24 30 -38 17 -14 30 -32 30 -40 0 -13 1 -13 10 0 8 13 10 12
10 -2 0 -10 7 -18 16 -18 8 0 13 -3 11 -7 -3 -5 1 -14 9 -21 8 -7 14 -10 14
-7 0 3 15 -9 34 -27 18 -18 31 -37 28 -42 -3 -5 -1 -6 5 -3 6 4 25 -7 43 -23
19 -17 29 -30 24 -30 -5 0 2 -6 15 -13 13 -6 23 -15 22 -19 0 -5 -1 -19 -1
-33 0 -29 -16 -34 -23 -7 -4 16 -5 16 -6 0 -1 -14 -5 -16 -26 -8 -16 6 -27 6
-31 -2 -5 -7 -3 -8 6 -3 9 5 11 4 6 -4 -6 -9 -11 -9 -24 1 -13 11 -15 10 -9
-5 4 -11 3 -16 -3 -12 -6 3 -10 13 -10 21 0 8 -10 14 -26 14 -17 0 -23 4 -18
13 5 7 0 6 -11 -3 -10 -8 -16 -10 -12 -3 4 6 3 14 -3 18 -5 3 -10 1 -10 -5 0
-6 -5 -8 -10 -5 -6 4 -7 12 -3 18 3 7 -4 3 -17 -8 -13 -11 -20 -15 -17 -9 8
14 -30 26 -39 13 -4 -6 -11 -6 -18 0 -7 6 -16 8 -19 4 -4 -3 -13 0 -22 7 -12
10 -15 10 -15 -1 0 -11 -2 -11 -10 1 -9 13 -10 13 -10 0 0 -13 -1 -13 -10 0
-7 12 -10 12 -10 1 0 -8 -6 -11 -17 -6 -10 3 -22 7 -28 8 -5 1 -13 7 -17 12
-5 6 -8 5 -8 -2 0 -7 -9 -13 -21 -13 -13 0 -18 4 -13 13 6 9 4 9 -7 1 -8 -6
-24 -10 -36 -9 -13 1 -23 -2 -23 -6 0 -5 -7 -6 -15 -3 -8 4 -21 2 -28 -3 -6
-4 -45 -8 -84 -8 -40 0 -73 -4 -73 -8 0 -5 -5 -5 -10 -2 -6 4 -18 1 -27 -7
-14 -11 -16 -11 -9 0 7 11 4 12 -13 3 -12 -7 -26 -9 -31 -6 -6 3 -10 0 -10 -7
0 -10 -2 -10 -9 1 -6 10 -10 10 -16 1 -6 -9 -10 -9 -16 1 -7 11 -9 11 -9 1 0
-8 -11 -11 -35 -9 -20 3 -38 0 -41 -4 -3 -5 -14 -5 -24 1 -11 6 -21 6 -24 1
-3 -5 -24 -8 -45 -7 -22 0 -37 -2 -35 -6 4 -6 -41 -8 -141 -7 -5 0 -35 -3 -65
-6 -30 -4 -83 -8 -117 -9 -33 0 -59 -4 -56 -8 2 -5 0 -8 -6 -8 -5 0 -13 5 -16
10 -4 6 -13 7 -23 1 -9 -5 -44 -9 -77 -9 -115 0 -180 -5 -194 -16 -11 -8 -13
-8 -8 1 5 8 -2 11 -23 11 -16 -1 -30 -4 -30 -8 0 -4 -7 -7 -15 -7 -8 0 -15 5
-15 10 0 6 -5 6 -12 0 -7 -5 -44 -9 -83 -8 -38 0 -73 -4 -77 -10 -5 -6 -11 -5
-17 4 -5 8 -11 9 -15 3 -4 -7 -17 -7 -36 -2 -17 5 -30 6 -30 2 0 -11 -74 -8
-82 3 -5 6 -8 4 -8 -5 0 -13 -1 -13 -11 0 -8 12 -12 12 -16 2 -4 -10 -8 -10
-21 0 -12 10 -14 10 -8 1 4 -7 3 -13 -3 -13 -5 0 -12 6 -14 13 -4 9 -6 9 -6
-1 -1 -10 -6 -10 -21 -2 -15 8 -20 8 -20 -2 0 -10 -2 -10 -9 1 -6 9 -11 10
-15 2 -4 -6 -12 -8 -18 -5 -6 4 -36 8 -67 9 -31 1 -64 6 -73 10 -10 4 -25 5
-33 1 -8 -3 -15 -2 -15 2 0 6 -33 9 -122 13 -10 0 -18 4 -18 9 0 11 -33 7 -42
-5 -5 -6 -8 -6 -8 2 0 6 -13 10 -29 9 -17 -1 -28 1 -25 5 2 4 0 10 -6 14 -5 3
-10 0 -10 -7 -1 -10 -4 -9 -13 2 -11 14 -29 19 -84 22 -13 1 -23 7 -23 13 0 5
-5 3 -10 -5 -5 -8 -10 -10 -10 -4 0 10 -11 12 -85 16 -19 1 -35 6 -35 10 0 4
-9 8 -21 8 -13 0 -18 -4 -13 -12 5 -8 0 -7 -11 2 -10 8 -26 14 -37 12 -10 -2
-18 2 -18 7 0 6 -11 11 -25 11 -14 0 -25 3 -25 8 0 4 -17 8 -37 10 -20 1 -41
8 -45 15 -6 9 -8 9 -8 0 0 -7 -12 -13 -26 -13 -14 0 -23 -4 -20 -8 3 -5 -5 -8
-17 -7 -41 3 -68 -50 -43 -84 9 -12 7 -13 -8 -8 -16 6 -17 5 -7 -7 8 -10 9
-16 1 -21 -6 -3 -8 -11 -4 -16 3 -5 2 -9 -3 -8 -4 1 -16 1 -26 0 -17 -1 -17
-2 0 -28 l17 -28 -22 22 c-13 13 -29 19 -42 16 -11 -3 -20 0 -20 6 0 6 -7 11
-15 11 -8 0 -15 6 -15 13 0 8 -4 7 -10 -3 -9 -13 -10 -13 -11 0 -1 8 -1 18 0
22 0 4 -9 5 -20 3 -17 -3 -18 -1 -10 9 9 11 8 18 -3 29 -11 11 -12 17 -3 27 9
10 9 11 0 6 -6 -3 -14 -2 -18 4 -3 5 -1 10 6 10 8 0 8 4 -1 15 -7 8 -9 15 -4
15 5 0 2 5 -6 10 -13 9 -13 10 0 10 12 0 12 2 2 9 -7 4 -14 17 -15 29 0 11 -5
18 -9 16 -4 -3 -8 4 -8 15 0 12 -6 21 -12 21 -10 0 -10 2 0 9 11 6 10 10 -4
15 -16 6 -16 8 -4 16 13 8 12 10 -2 10 -11 0 -15 5 -12 15 4 8 -1 17 -10 21
-13 5 -14 9 -5 20 9 11 8 14 -5 14 -10 0 -14 5 -11 10 3 6 2 10 -2 10 -5 0
-16 18 -26 40 -9 22 -19 40 -23 40 -3 0 -2 -5 2 -12 4 -6 3 -8 -4 -5 -5 4 -8
17 -4 29 3 11 1 19 -4 16 -5 -3 -15 0 -22 8 -10 11 -10 14 0 14 7 0 0 12 -15
26 -16 14 -24 30 -20 37 4 8 1 7 -9 -1 -14 -11 -16 -10 -14 12 2 14 -1 23 -5
20 -12 -7 -51 35 -44 46 4 6 0 10 -8 10 -8 0 -18 7 -21 16 -3 8 -10 13 -15 9
-5 -3 -12 4 -16 15 -3 11 -11 20 -16 20 -6 0 -7 5 -3 12 5 8 2 9 -9 5 -9 -3
-16 -3 -16 1 4 23 -3 42 -14 42 -21 0 -50 37 -41 52 6 10 4 10 -9 -1 -12 -9
-17 -10 -17 -2 0 7 -4 9 -10 6 -5 -3 -7 0 -4 8 3 9 -3 16 -16 20 -12 3 -24 15
-27 26 -3 13 -10 18 -21 14 -12 -5 -14 -2 -9 11 4 10 3 15 -3 11 -6 -3 -10 -1
-10 4 0 6 -7 11 -16 11 -10 0 -14 6 -11 14 4 10 0 14 -13 11 -13 -2 -27 7 -40
26 -12 16 -28 29 -35 29 -8 0 -12 6 -9 13 2 7 -4 21 -15 31 -11 10 -18 23 -14
29 3 5 -2 16 -12 24 -11 7 -13 13 -6 13 9 0 8 4 -3 15 -8 8 -13 24 -11 35 2
11 1 20 -3 20 -4 0 -9 16 -10 35 -3 56 -5 65 -15 65 -5 0 -5 6 2 13 8 10 7 17
-1 25 -7 7 -9 12 -5 12 4 0 3 10 -4 21 -6 12 -7 19 -2 16 4 -3 8 39 8 94 0 54
3 99 8 99 5 0 3 8 -4 17 -12 15 -12 16 1 8 13 -8 13 -7 1 9 -12 14 -12 19 -2
26 8 4 11 12 7 18 -3 6 -1 14 6 19 13 8 18 26 21 75 1 14 6 24 11 20 5 -3 7 2
3 11 -3 10 -2 17 3 17 5 0 9 8 9 18 3 54 7 80 13 76 11 -7 16 20 6 40 -6 11
-6 16 -1 13 6 -4 10 12 11 34 1 23 4 45 8 50 3 5 -1 9 -8 9 -10 0 -10 2 1 9 9
6 10 11 3 15 -6 4 -8 14 -5 23 4 11 3 14 -5 9 -8 -5 -10 -2 -6 8 3 9 11 13 18
9 6 -3 2 3 -8 15 -11 12 -15 22 -11 22 4 0 0 9 -10 20 -18 20 -18 21 1 15 17
-6 17 -6 2 5 -10 6 -18 18 -18 26 0 8 -4 12 -10 9 -5 -3 -10 3 -10 14 0 12 -7
21 -16 21 -8 0 -13 4 -10 8 3 5 0 9 -7 10 -7 0 -21 3 -32 5 -11 2 -26 0 -32
-5 -9 -7 -14 -6 -18 4 -4 11 -22 14 -68 13 -34 0 -68 4 -76 10 -11 7 -13 7 -8
-1 4 -7 -2 -14 -13 -17 -13 -3 -18 -1 -13 6 5 9 3 9 -8 1 -8 -6 -22 -10 -31
-9 -10 2 -18 -1 -18 -6 0 -6 -4 -8 -9 -5 -15 10 -72 -15 -64 -27 4 -7 0 -7 -9
1 -14 11 -18 11 -25 -2 -4 -8 -15 -16 -23 -18 -8 -2 -20 -9 -25 -16 -6 -7 -20
-14 -32 -15 -14 -1 -24 -10 -28 -24 -3 -13 -10 -21 -15 -18 -5 3 -11 1 -15 -5
-3 -5 -1 -10 5 -10 6 0 8 -5 5 -10 -4 -6 -11 -7 -17 -4 -6 4 -9 1 -6 -7 3 -8
-4 -19 -16 -26 -14 -8 -16 -12 -6 -13 10 0 7 -7 -10 -23 -14 -12 -19 -17 -11
-12 12 9 12 7 1 -12 -8 -12 -16 -20 -20 -19 -3 2 -13 -5 -23 -16 -19 -20 -9
-25 13 -5 8 6 7 3 -3 -9 -9 -11 -14 -24 -10 -27 3 -4 1 -7 -6 -7 -7 0 -9 -4
-6 -10 3 -5 1 -10 -4 -10 -6 0 -11 -12 -11 -27 0 -22 -2 -25 -10 -13 -8 11 -9
7 -4 -14 5 -22 4 -27 -6 -21 -9 5 -11 4 -6 -4 4 -6 2 -19 -6 -28 -8 -11 -9
-14 -1 -10 8 5 8 -1 -2 -19 -8 -15 -12 -31 -9 -36 3 -4 2 -14 -2 -20 -10 -16
-13 -48 -4 -48 4 0 7 -7 7 -15 0 -10 -6 -14 -16 -10 -12 5 -13 3 -4 -6 6 -6 9
-18 6 -27 -5 -11 -3 -13 7 -7 9 6 11 4 5 -6 -13 -19 -14 -49 -2 -49 5 0 3 -8
-4 -17 -12 -15 -12 -16 1 -8 13 8 13 7 1 -8 -7 -9 -9 -17 -4 -17 5 0 10 -15
11 -32 2 -79 6 -108 14 -108 5 0 6 -9 3 -20 -4 -13 -2 -20 6 -20 7 0 9 -3 6
-7 -4 -3 -2 -12 3 -19 6 -6 10 -16 9 -20 -4 -23 2 -45 11 -39 5 3 7 0 4 -8 -3
-8 -1 -18 5 -22 6 -3 11 -11 11 -16 0 -6 -5 -7 -10 -4 -6 4 -5 -4 1 -19 7 -14
15 -23 19 -21 4 2 5 -7 2 -22 -3 -18 -1 -24 7 -19 7 5 11 0 11 -13 0 -12 5
-21 11 -21 5 0 7 -5 4 -11 -4 -6 1 -17 11 -25 11 -9 13 -12 6 -9 -11 6 -11 3
0 -14 7 -12 16 -21 20 -21 5 0 8 -8 8 -18 0 -10 8 -25 18 -34 9 -8 28 -30 40
-47 40 -52 99 -109 121 -116 14 -4 18 -11 14 -23 -6 -15 -5 -16 12 -2 11 9 16
10 11 3 -7 -12 12 -19 38 -14 5 1 3 -6 -5 -16 -13 -17 -13 -17 12 -1 26 16 27
16 22 -2 -3 -11 -1 -20 5 -20 6 0 9 -9 7 -20 -2 -11 0 -18 4 -16 4 3 8 -1 8
-8 0 -7 -6 -13 -13 -13 -7 0 -11 3 -9 7 2 3 -9 11 -26 17 -17 7 -31 7 -35 2
-3 -5 -10 -9 -15 -9 -6 0 -7 5 -3 12 5 7 3 8 -7 2 -20 -12 -59 -13 -59 -1 0 6
-3 7 -7 4 -3 -4 -12 -2 -20 4 -10 9 -13 8 -13 -1 0 -9 -7 -8 -24 4 -16 10 -27
12 -31 5 -5 -7 -11 -6 -21 2 -11 9 -14 9 -14 -1 0 -9 -4 -9 -17 1 -15 12 -16
12 -8 -1 8 -13 6 -13 -7 -2 -9 7 -30 14 -47 14 -17 1 -31 4 -31 8 0 5 -7 11
-16 14 -8 3 -12 2 -9 -4 3 -6 -3 -10 -15 -10 -14 0 -19 4 -14 13 6 9 4 9 -7 1
-8 -6 -31 -10 -51 -8 -20 2 -40 -1 -43 -6 -4 -7 -13 -7 -24 0 -10 5 -21 6 -25
3 -4 -4 -21 -8 -39 -9 -85 -5 -107 -9 -107 -19 0 -5 -4 -4 -9 3 -11 17 -21 17
-32 0 -5 -7 -9 -8 -9 -3 0 6 -9 11 -20 11 -11 0 -20 -3 -20 -6 0 -3 -12 -6
-27 -5 -16 0 -34 -5 -41 -12 -7 -7 -24 -13 -37 -13 -13 0 -25 -4 -27 -9 -2 -5
-12 -11 -23 -13 -10 -1 -28 -11 -40 -20 -11 -10 -27 -24 -37 -32 -9 -8 -19
-12 -22 -9 -3 4 -6 -1 -6 -10 0 -10 -7 -17 -16 -17 -8 0 -12 -4 -9 -10 3 -5 1
-10 -5 -10 -6 0 -9 -4 -5 -9 3 -6 0 -13 -7 -18 -7 -4 -19 -19 -26 -32 -11 -19
-11 -22 0 -15 10 6 10 5 2 -7 -15 -18 -15 -150 0 -168 9 -12 8 -13 -4 -6 -12
7 -13 6 -3 -7 7 -8 14 -27 15 -42 1 -14 6 -26 11 -26 4 0 6 -4 2 -9 -6 -11 26
-91 37 -91 5 0 8 -7 8 -15 0 -8 5 -15 10 -15 6 0 10 -7 10 -15 0 -8 5 -15 10
-15 6 0 10 -7 10 -15 0 -9 8 -19 18 -22 9 -4 24 -15 33 -25 9 -10 20 -14 24
-10 5 4 1 -6 -9 -22 -10 -16 -13 -25 -7 -22 6 4 11 4 11 1 0 -8 -27 -35 -31
-31 -2 1 -13 -6 -23 -17 -17 -17 -17 -19 -2 -14 15 6 15 5 -1 -18 -10 -13 -23
-23 -28 -21 -6 2 -12 -5 -12 -16 -2 -17 0 -18 15 -6 14 10 13 8 -1 -9 -11 -12
-16 -27 -11 -34 5 -8 3 -10 -6 -4 -9 6 -10 2 -5 -15 6 -17 4 -21 -6 -14 -12 6
-12 5 -1 -8 9 -12 10 -18 2 -23 -7 -4 -8 -11 -2 -18 5 -7 8 -29 7 -49 -1 -21
2 -38 7 -38 5 0 7 -4 4 -9 -10 -16 6 -71 18 -64 6 4 5 0 -2 -9 -9 -11 -10 -18
-2 -23 5 -3 10 -15 10 -26 0 -10 5 -19 11 -19 6 0 8 -7 5 -16 -3 -8 -2 -12 4
-9 6 3 10 2 10 -4 0 -6 11 -22 25 -36 14 -14 22 -25 18 -25 -4 -1 9 -10 30
-21 24 -13 37 -26 37 -40 0 -11 5 -17 10 -14 6 3 10 -3 10 -14 0 -12 6 -21 13
-21 8 0 7 -4 -3 -10 -11 -7 -11 -10 -2 -10 9 0 10 -5 3 -19 -6 -10 -7 -21 -3
-25 3 -4 -1 -4 -11 0 -9 3 -17 2 -17 -4 0 -6 6 -13 13 -15 7 -3 5 -6 -5 -6
-11 -1 -15 -6 -12 -16 4 -8 1 -15 -5 -15 -6 0 -8 -7 -4 -17 4 -10 2 -14 -5 -9
-7 4 -8 -2 -2 -23 6 -21 5 -31 -3 -35 -8 -3 -7 -8 3 -15 10 -7 11 -11 3 -11
-7 0 -13 -5 -13 -11 0 -5 3 -8 8 -6 4 3 6 -15 5 -39 0 -24 3 -44 8 -44 4 0 6
-7 3 -15 -4 -8 -1 -15 5 -15 6 0 10 -3 10 -7 -3 -19 2 -33 18 -49 10 -9 28
-31 41 -48 13 -17 24 -30 25 -29 6 7 46 -11 41 -18 -3 -5 0 -9 6 -9 6 0 8 -4
5 -10 -3 -5 -1 -10 6 -10 7 0 28 -12 47 -27 20 -15 32 -21 28 -15 -4 7 -2 12
3 12 6 0 11 -5 11 -11 0 -5 5 -7 10 -4 6 3 10 1 10 -6 0 -7 3 -9 6 -6 4 4 24
-11 45 -33 22 -22 39 -37 39 -33 0 3 8 -4 19 -15 10 -12 21 -19 25 -15 3 3 6
1 6 -5 0 -17 67 -51 108 -54 6 -1 12 -4 12 -7 0 -4 18 -6 40 -5 22 0 40 -4 40
-9 0 -6 3 -8 6 -4 4 3 19 0 35 -8 16 -9 40 -16 54 -17 14 -1 25 -5 25 -9 0 -5
24 -8 115 -12 22 -1 43 -6 47 -12 5 -7 8 -6 8 1 0 5 19 12 42 13 24 2 54 4 68
5 14 1 30 4 35 7 6 2 49 4 97 4 52 0 88 4 88 10 0 6 5 3 10 -5 8 -13 10 -13
10 0 0 8 20 -8 45 -35 25 -28 45 -46 45 -42 0 5 7 2 15 -5 29 -26 40 -33 60
-36 11 -2 22 -7 25 -10 6 -8 27 -11 97 -14 32 -1 50 -6 47 -12 -3 -6 1 -3 9 7
9 11 18 14 21 8 4 -6 14 -7 22 -4 9 3 28 7 43 8 14 1 33 4 41 8 28 10 70 14
70 6 0 -5 7 -5 17 -2 11 4 14 3 9 -5 -7 -11 25 -18 61 -13 7 1 13 -4 13 -11 0
-10 2 -10 9 0 11 17 21 17 32 0 7 -11 9 -11 9 1 0 11 3 11 15 1 12 -10 15 -10
15 0 0 10 3 10 14 1 8 -7 17 -8 20 -3 7 11 46 10 65 -2 11 -7 12 -6 6 5 -8 12
-6 12 8 0 10 -8 20 -11 24 -8 3 4 14 2 24 -4 14 -7 19 -6 19 3 0 9 3 9 10 -2
8 -12 10 -12 10 -1 0 11 3 11 16 0 13 -10 17 -10 25 2 5 8 9 10 9 4 0 -5 16
-10 35 -10 19 0 35 4 35 8 0 5 5 5 11 2 9 -6 31 -7 144 -2 22 1 43 6 47 12 5
7 8 6 8 -1 0 -12 45 -13 56 -1 4 4 13 2 21 -4 10 -9 13 -8 13 1 0 10 3 10 14
1 11 -9 16 -9 21 0 6 8 10 7 16 -2 5 -8 9 -9 9 -4 0 6 30 11 66 12 36 2 74 8
85 13 11 6 24 8 29 5 6 -3 10 -2 10 2 0 5 23 8 50 7 28 0 50 3 50 8 0 11 23 6
32 -7 5 -6 8 -5 8 2 0 7 10 13 23 13 36 -1 71 5 85 13 6 5 17 5 22 2 6 -3 10
-1 10 5 0 6 5 8 11 4 6 -3 15 -1 19 7 7 10 12 10 26 -2 10 -8 15 -9 11 -3 -6
10 28 16 95 17 15 0 25 3 23 7 -6 10 39 7 46 -4 4 -4 17 -3 29 4 15 8 20 8 16
1 -8 -12 6 -15 17 -4 4 3 24 8 44 10 20 2 42 7 48 12 5 4 24 8 40 9 17 1 31 6
33 12 2 5 10 6 18 3 8 -3 14 0 14 7 0 6 4 9 9 6 5 -3 28 1 52 10 24 9 51 17
59 19 8 2 16 4 18 5 1 2 5 3 10 4 4 1 17 7 30 14 12 7 22 9 22 5 0 -4 5 -1 10
7 5 8 10 10 10 4 0 -6 7 -11 15 -11 8 0 12 4 9 9 -3 4 -2 8 3 9 29 3 48 9 51
18 2 5 10 7 18 4 8 -3 22 1 31 8 14 12 16 12 8 -1 -8 -13 -6 -13 8 -2 9 8 21
11 27 7 5 -3 10 -2 10 3 0 9 6 11 63 14 20 2 37 7 37 12 0 4 11 6 25 4 14 -3
27 -2 30 2 2 4 21 7 41 8 20 1 41 5 48 10 6 4 21 7 34 6 12 0 22 3 22 7 0 5 5
9 11 9 5 0 7 -6 4 -12 -4 -7 0 -5 8 5 8 9 22 17 31 17 10 0 15 4 12 9 -3 5 1
12 10 15 11 4 14 15 10 42 -4 19 -3 33 1 31 13 -8 8 80 -5 95 -18 22 -1 30 21
11 19 -17 20 -17 8 4 -10 20 -9 21 11 18 12 -3 28 1 37 8 12 9 13 9 7 0 -4 -7
-3 -13 3 -13 5 0 12 4 16 10 7 11 35 2 35 -12 0 -6 -8 -4 -17 3 -15 11 -15 10
1 -8 10 -13 23 -20 29 -16 6 3 7 1 3 -6 -14 -22 -17 -63 -5 -55 8 5 9 3 4 -7
-12 -18 -13 -79 -2 -79 4 0 5 -6 0 -12 -10 -17 -13 -38 -4 -38 9 0 7 -42 -3
-58 -4 -7 -2 -12 4 -12 6 0 8 -5 4 -12 -12 -19 -14 -58 -3 -58 6 0 6 -6 0 -18
-6 -11 -6 -24 1 -36 7 -13 7 -17 0 -12 -6 4 -10 -2 -9 -14 1 -11 5 -20 10 -20
5 0 4 -7 -3 -15 -10 -12 -10 -15 1 -15 9 0 10 -3 4 -8 -12 -8 -14 -230 -3
-248 4 -6 4 -14 0 -18 -8 -9 -10 -76 -2 -76 4 0 7 -7 7 -15 0 -8 -4 -12 -8 -9
-4 2 -7 -5 -6 -16 1 -11 5 -20 10 -20 5 0 4 -7 -3 -15 -9 -11 -10 -18 -1 -28
6 -8 8 -17 5 -20 -10 -9 -11 -98 -2 -103 5 -3 5 -11 1 -17 -11 -19 -13 -58 -1
-51 6 4 5 -3 -2 -16 -8 -14 -8 -25 -2 -29 5 -3 6 -15 2 -26 -4 -11 -4 -32 1
-47 4 -16 4 -28 0 -28 -4 0 -7 -9 -8 -20 -1 -11 3 -20 8 -20 6 0 5 -9 -2 -21
-8 -16 -8 -20 1 -14 9 6 9 2 0 -15 -7 -12 -8 -25 -4 -29 8 -5 10 -27 4 -41 -1
-3 -4 -18 -6 -35 -3 -23 -2 -26 6 -15 5 8 10 10 10 4 0 -6 -3 -14 -7 -17 -11
-11 -12 -56 -2 -63 5 -3 6 -11 2 -17 -13 -20 -12 -127 1 -127 7 0 7 -3 -1 -8
-12 -8 -12 -49 -1 -68 4 -5 3 -16 -2 -24 -5 -8 -5 -21 -1 -29 5 -9 7 -26 6
-39 -1 -12 3 -22 9 -22 6 0 4 -5 -4 -10 -11 -7 -11 -10 -2 -10 7 0 10 -5 7
-10 -4 -6 -2 -17 5 -25 8 -9 8 -15 0 -20 -6 -3 -7 -12 -3 -18 6 -10 12 -53 16
-124 0 -13 6 -23 12 -23 5 0 3 -5 -5 -10 -8 -5 -10 -10 -5 -10 6 0 11 -24 12
-53 5 -92 9 -133 17 -145 4 -7 2 -12 -5 -12 -8 0 -8 -4 -2 -13 6 -6 9 -22 8
-35 -1 -12 1 -22 5 -22 3 0 5 -14 4 -30 -1 -17 2 -30 7 -30 5 0 8 -3 8 -7 -4
-23 2 -43 11 -38 6 3 10 1 10 -5 0 -19 29 -42 42 -34 7 4 10 4 6 0 -9 -11 14
-36 26 -28 5 3 7 -2 3 -11 -4 -11 -2 -14 9 -10 18 7 18 -6 -1 -31 -8 -10 -20
-16 -28 -13 -11 4 -13 0 -10 -16 4 -18 3 -19 -7 -7 -9 11 -13 12 -17 2 -2 -6
-9 -10 -14 -6 -5 3 -9 0 -9 -5 0 -6 6 -11 13 -11 9 0 9 -2 0 -8 -14 -9 -20
-72 -9 -90 4 -7 2 -12 -6 -12 -9 0 -9 -3 2 -10 13 -9 13 -10 0 -10 -12 0 -13
-2 -1 -9 11 -7 11 -9 0 -14 -10 -4 -10 -6 -1 -6 6 -1 12 -6 12 -12 0 -5 -6 -7
-12 -3 -9 6 -9 3 0 -9 8 -9 11 -25 7 -37 -4 -11 -2 -20 4 -20 6 0 11 -5 11
-11 0 -5 -6 -7 -12 -3 -10 6 -10 4 -3 -7 6 -8 11 -33 10 -56 0 -22 4 -39 9
-35 5 3 7 -2 3 -11 -4 -10 -1 -17 6 -17 8 0 6 -4 -3 -10 -9 -6 -11 -10 -3 -10
7 0 10 -6 7 -14 -3 -8 0 -17 5 -21 6 -3 9 -10 6 -15 -3 -5 0 -28 6 -51 11 -34
10 -42 -2 -50 -12 -7 -12 -9 1 -9 11 0 15 -11 14 -40 -1 -22 2 -40 7 -40 5 0
9 -13 9 -29 0 -17 4 -32 8 -35 5 -3 10 -33 11 -68 1 -34 7 -65 13 -69 7 -4 7
-9 -1 -13 -6 -4 -8 -13 -4 -19 4 -7 9 -21 10 -32 2 -11 6 -27 10 -35 3 -8 7
-34 8 -57 1 -23 8 -50 16 -59 9 -12 9 -15 2 -10 -7 4 -13 2 -13 -3 0 -6 5 -11
11 -11 5 0 7 -5 4 -10 -3 -6 0 -13 9 -16 8 -3 12 -12 9 -20 -3 -8 1 -14 11
-14 10 0 16 -9 16 -22 0 -18 2 -20 9 -9 8 12 14 7 32 -23 12 -20 27 -35 34
-32 6 2 18 0 26 -6 11 -8 10 -9 -3 -4 -12 3 -18 0 -18 -10 0 -8 4 -12 10 -9 6
3 7 -1 4 -9 -5 -14 -8 -13 -23 2 -9 10 -12 12 -7 5 8 -12 2 -17 -16 -14 -4 0
-5 -6 -1 -15 5 -13 8 -13 15 -2 8 10 9 10 5 -2 -2 -8 -10 -14 -16 -12 -6 1
-14 -4 -17 -12 -3 -9 -12 -12 -21 -9 -13 5 -15 1 -11 -20 3 -15 2 -24 -2 -22
-5 3 -11 -2 -14 -11 -3 -8 -2 -12 4 -9 6 4 8 -6 6 -25 -2 -17 1 -33 6 -36 5
-3 4 -12 -3 -20 -8 -10 -8 -14 0 -14 6 0 9 -13 7 -30 -2 -16 1 -31 7 -33 6 -2
6 -11 -2 -25 -9 -17 -9 -22 0 -20 7 2 12 -10 12 -32 0 -19 5 -41 11 -49 9 -12
8 -13 -4 -6 -12 7 -13 6 -4 -6 6 -8 10 -22 9 -32 -2 -10 0 -31 5 -47 6 -21 5
-30 -3 -30 -7 0 -6 -4 3 -10 8 -5 11 -10 6 -10 -5 0 -3 -7 4 -15 9 -11 9 -15
1 -15 -8 0 -9 -6 -2 -17 5 -10 9 -21 10 -25 1 -5 2 -11 2 -15 1 -5 1 -16 0
-25 -1 -10 3 -18 10 -18 8 0 8 -4 -1 -15 -7 -8 -8 -15 -3 -15 10 0 10 -2 14
-58 1 -17 6 -32 12 -32 5 0 5 -6 -2 -13 -6 -8 -8 -17 -4 -21 8 -7 11 -25 15
-73 1 -18 5 -33 8 -33 3 0 6 -13 6 -30 1 -20 -2 -27 -10 -23 -6 4 -5 -1 3 -11
8 -10 15 -34 15 -54 1 -20 5 -43 9 -49 5 -8 4 -13 -3 -13 -8 0 -7 -6 1 -21 9
-17 8 -23 -2 -30 -8 -5 -9 -9 -4 -9 9 0 15 -29 18 -87 0 -7 5 -13 11 -13 6 0
6 -4 -1 -11 -9 -9 -7 -18 5 -37 9 -15 16 -29 15 -32 -8 -16 10 -38 27 -35 13
3 20 -2 21 -13 0 -10 3 -12 6 -5 3 10 8 9 20 -2 8 -8 19 -13 24 -9 5 3 8 0 7
-7 -2 -7 6 -13 17 -13 11 -1 28 -10 38 -21 10 -11 15 -14 12 -7 -6 11 -3 11
14 0 12 -7 21 -15 21 -18 0 -3 12 -7 27 -8 15 -1 30 -8 35 -15 4 -6 8 -8 8 -3
0 5 10 1 22 -10 12 -10 18 -13 14 -7 -4 7 -2 13 3 13 6 0 11 -5 11 -11 0 -5 4
-8 9 -4 5 3 12 1 16 -5 4 -6 11 -8 16 -5 5 4 9 1 9 -5 0 -7 7 -10 15 -6 8 3
15 1 15 -5 0 -6 4 -7 10 -4 5 3 10 2 10 -4 0 -5 9 -8 20 -6 13 2 23 -2 27 -11
5 -13 7 -13 14 -2 7 10 9 11 9 0 0 -7 4 -11 9 -7 5 3 12 1 16 -5 4 -6 11 -8
16 -5 5 4 9 1 9 -4 0 -6 11 -11 25 -11 14 0 37 -7 50 -16 20 -13 25 -14 25 -3
1 11 3 11 13 -1 7 -8 23 -17 37 -19 14 -1 28 -8 32 -15 4 -6 8 -7 8 -2 0 5 7
3 15 -4 9 -7 15 -8 15 -2 0 5 9 8 20 5 11 -3 20 -8 20 -12 0 -3 19 -7 42 -9
23 -1 47 -6 52 -10 6 -5 23 -8 39 -7 15 0 27 -4 27 -10 0 -5 5 -3 10 5 7 11
10 11 10 2 0 -7 4 -10 10 -7 6 3 10 3 10 -2 0 -4 16 -9 37 -10 20 -1 39 -6 42
-10 3 -5 17 -8 31 -8 14 1 30 -1 35 -4 13 -7 30 -10 84 -16 25 -3 50 -10 56
-15 7 -6 16 -5 23 2 7 7 12 8 12 2 0 -5 17 -10 38 -10 20 -1 53 -4 72 -8 58
-11 91 -13 96 -5 3 5 11 6 19 2 8 -3 15 0 15 7 0 6 5 8 13 3 6 -4 17 -8 22 -8
6 -1 9 -5 8 -11 -1 -5 6 -10 15 -11 9 0 27 -3 40 -6 12 -3 22 -1 22 4 0 6 6 7
13 2 19 -12 40 -13 68 -4 15 5 31 5 35 1 5 -5 21 -11 36 -14 15 -2 32 -7 37
-10 5 -4 12 -2 15 3 4 6 18 6 36 1 17 -5 28 -5 25 0 -3 5 4 8 15 7 11 -1 20
-5 20 -10 0 -5 7 -4 15 3 8 6 19 9 25 5 5 -3 10 0 10 7 0 8 3 9 8 3 7 -10 112
-16 112 -6 0 3 18 6 40 5 22 0 40 2 40 6 0 3 13 6 29 5 16 0 27 -3 24 -7 -2
-5 1 -8 6 -8 6 0 11 4 11 9 0 6 8 10 18 9 9 0 51 3 92 7 41 4 94 8 117 8 24 1
43 7 43 12 0 6 5 3 10 -5 6 -9 10 -11 10 -3 0 7 6 10 14 7 8 -3 17 0 21 6 5 8
10 8 20 0 10 -8 15 -8 20 1 6 8 10 7 16 -2 6 -10 11 -11 17 -3 4 6 14 11 22
12 8 0 33 3 55 6 22 3 44 5 48 5 5 1 5 7 1 14 -5 8 -2 8 9 -2 14 -11 17 -11
17 0 0 11 2 11 10 -1 7 -11 10 -11 10 -2 0 7 5 10 10 7 6 -3 10 0 10 7 0 9 3
9 10 -2 6 -10 10 -11 10 -2 0 6 12 12 28 12 15 0 34 6 41 13 11 10 12 9 6 -1
-6 -12 -3 -12 15 -2 12 7 33 10 46 7 13 -2 24 -1 24 4 0 4 11 6 25 4 14 -1 28
2 31 7 3 5 12 4 20 -3 9 -7 14 -8 14 -1 0 6 9 11 20 11 11 1 29 1 40 2 11 0
22 4 25 8 2 5 18 7 35 5 19 -2 30 1 30 9 0 8 4 7 10 -3 7 -11 10 -11 10 -2 0
7 5 10 10 7 6 -4 17 -1 25 5 12 10 15 10 15 -1 1 -10 3 -9 10 3 6 10 18 14 31
11 12 -4 25 0 30 8 7 11 9 11 9 1 0 -9 5 -10 18 -4 9 5 25 8 35 7 9 -2 17 1
17 6 0 4 7 6 15 3 8 -4 15 -1 15 6 0 7 6 10 14 7 8 -3 17 -3 20 1 4 3 12 7 19
9 7 1 41 9 77 16 36 8 69 12 74 9 5 -3 6 0 1 7 -5 9 -1 12 11 11 11 -1 21 -1
24 0 3 1 16 3 30 5 14 2 36 7 50 10 14 4 35 8 47 9 11 0 19 5 15 10 -3 5 2 7
11 3 10 -3 17 -2 17 4 0 6 5 7 10 4 6 -3 10 0 10 7 0 11 2 10 9 0 7 -11 9 -10
15 3 3 9 10 13 16 10 5 -3 10 -1 10 6 0 7 3 9 6 6 4 -4 20 3 35 14 16 11 33
17 39 14 6 -3 13 2 17 12 4 10 11 21 17 25 8 5 8 8 0 8 -7 0 -15 7 -18 16 -4
9 -2 13 5 8 8 -4 7 0 0 15 -7 11 -14 21 -17 21 -3 0 -2 -5 2 -12 4 -6 3 -8 -3
-5 -5 3 -9 20 -8 36 1 17 -2 28 -7 25 -4 -3 -8 4 -8 15 0 12 -5 21 -11 21 -8
0 -7 6 2 17 10 11 10 14 2 9 -11 -6 -19 7 -10 17 1 2 -6 15 -16 30 -10 15 -13
27 -7 27 6 0 8 5 5 10 -4 6 -10 8 -14 6 -4 -3 -8 1 -8 8 0 8 -8 30 -17 51 -10
20 -15 43 -12 51 3 8 0 13 -7 11 -7 -1 -12 5 -13 13 -1 40 -16 80 -27 73 -9
-5 -9 -3 0 8 9 11 8 20 -7 39 -14 18 -16 29 -8 43 8 15 7 18 -3 12 -9 -6 -11
-2 -7 13 4 15 2 22 -8 22 -8 0 -13 3 -13 8 4 22 -2 42 -10 37 -6 -3 -8 4 -6
15 2 11 -3 24 -13 30 -13 7 -14 9 -3 10 11 0 10 4 -5 16 -10 8 -12 13 -4 9 8
-4 6 1 -4 9 -15 12 -16 16 -5 16 12 0 12 2 0 9 -8 5 -11 16 -8 24 4 10 -1 17
-11 20 -14 4 -13 5 3 6 19 1 19 2 -2 16 -13 9 -20 23 -18 35 2 11 -1 20 -7 20
-5 0 -7 7 -4 15 3 9 -1 18 -9 21 -8 4 -12 10 -9 15 3 5 0 9 -7 9 -6 0 -9 8 -6
20 3 11 1 18 -4 14 -5 -3 -9 4 -9 16 0 14 -4 19 -12 14 -9 -5 -9 -3 1 9 11 14
11 18 -2 23 -9 3 -13 12 -11 19 3 7 0 16 -7 21 -8 5 -10 3 -4 -6 5 -8 4 -11
-3 -7 -5 4 -8 16 -5 27 3 11 0 20 -6 20 -6 0 -11 5 -11 11 0 5 5 7 12 3 7 -4
8 -3 4 4 -4 7 -14 12 -22 12 -8 0 -14 5 -14 11 0 5 5 7 10 4 6 -3 10 1 10 10
0 9 -5 13 -11 10 -6 -4 -9 0 -7 11 2 12 -2 18 -11 16 -12 -3 -12 -1 -1 13 11
13 10 18 -6 29 -12 9 -25 11 -34 6 -9 -5 -28 -7 -42 -6 -21 2 -25 -1 -21 -18
3 -12 1 -17 -4 -11 -13 16 -52 15 -46 -1 7 -20 -7 -17 -23 4 -13 16 -14 16 -7
-3 6 -18 5 -18 -10 -6 -16 12 -17 12 -10 -5 6 -16 5 -17 -9 -6 -13 10 -18 10
-24 1 -5 -8 -3 -9 6 -4 9 6 11 4 6 -4 -6 -9 -12 -8 -26 4 -14 12 -20 13 -26 4
-4 -7 -3 -10 3 -6 6 4 14 0 17 -9 6 -15 4 -15 -18 0 -24 15 -26 15 -36 -3 -10
-19 -35 -21 -62 -5 -8 5 -9 2 -5 -9 3 -9 1 -19 -5 -23 -7 -4 -8 -3 -4 5 6 9
-3 11 -34 7 -39 -5 -41 -4 -24 9 17 13 18 14 2 15 -10 0 -18 5 -18 10 0 7 6 7
19 1 15 -8 20 -7 25 5 4 12 2 15 -9 11 -8 -4 -17 -2 -21 4 -3 6 -12 8 -20 5
-7 -3 -16 -1 -19 5 -4 5 -3 9 2 8 19 -3 34 2 29 10 -7 11 21 8 31 -4 4 -4 2
-5 -6 0 -10 6 -12 4 -6 -4 5 -9 10 -10 18 -2 7 7 16 7 28 0 10 -5 24 -8 31 -7
7 2 12 -3 10 -10 -1 -8 2 -11 8 -7 17 10 -8 35 -27 28 -10 -4 -14 -2 -10 4 4
6 -3 9 -18 7 -14 -1 -25 2 -25 7 0 5 7 9 16 9 9 0 23 8 30 17 12 15 13 16 8 2
-3 -10 0 -20 6 -24 6 -3 10 -3 9 2 -3 20 2 34 11 28 6 -4 7 -11 4 -17 -4 -7
-2 -8 4 -4 6 4 9 13 5 21 -3 8 0 16 6 16 32 4 36 6 33 17 -2 10 3 10 18 2 16
-8 20 -8 18 2 -2 7 5 12 15 11 13 -1 17 4 12 14 -5 14 -3 14 11 2 14 -11 18
-11 28 2 14 19 50 34 40 16 -4 -6 3 -3 16 8 15 13 21 15 16 5 -4 -8 0 -6 8 4
9 11 16 16 16 12 0 -5 6 -3 13 3 8 6 18 7 22 3 5 -4 5 -1 1 6 -4 6 -2 12 4 12
6 0 8 5 5 10 -3 6 -1 10 5 10 7 0 10 7 6 15 -3 8 0 15 7 15 7 0 8 3 2 8 -11 8
-14 82 -3 82 4 0 3 14 -2 30 -5 17 -5 30 0 30 5 0 5 13 0 30 -6 21 -5 30 3 30
8 0 8 3 -1 12 -14 14 -16 32 -3 24 4 -3 5 13 1 36 -5 23 -6 47 -4 53 3 7 -2
18 -10 25 -9 7 -13 17 -10 22 4 6 0 14 -7 19 -11 7 -11 9 -1 9 9 0 10 6 5 18
-11 21 -10 43 1 61 6 10 5 12 -2 7 -8 -5 -12 1 -12 14 0 14 4 19 13 14 9 -6 9
-4 1 7 -15 20 -16 69 -1 69 7 0 8 3 2 8 -15 11 -18 85 -2 76 9 -5 9 -4 0 6 -8
8 -9 20 -3 36 7 17 6 24 -3 24 -8 0 -7 4 3 10 10 6 11 10 3 10 -9 0 -10 7 -2
27 5 14 6 29 2 32 -9 7 -9 28 0 51 8 23 5 50 -7 50 -6 0 -5 5 2 12 7 7 12 24
12 38 0 14 6 32 13 39 10 11 9 12 -3 6 -9 -5 -7 1 5 15 11 13 14 20 6 15 -10
-6 -11 -2 -6 16 5 13 9 35 9 49 1 14 5 31 9 38 5 7 3 12 -3 12 -6 0 -8 5 -5
10 4 6 9 34 11 63 2 29 6 75 10 102 3 28 7 60 7 73 1 12 7 22 12 22 6 0 3 5
-5 10 -10 6 -11 10 -3 10 8 0 11 11 9 30 -2 16 -1 32 3 35 6 7 7 13 9 63 2 23
6 31 15 26 9 -5 9 -4 0 6 -8 9 -9 20 -2 38 7 18 6 27 -2 32 -8 6 -8 9 0 11 10
4 20 41 23 87 1 6 6 12 12 12 6 0 4 5 -4 10 -11 7 -11 10 -2 10 7 0 10 5 7 10
-4 6 -1 17 5 25 10 12 10 15 -1 15 -12 0 -12 2 0 9 8 5 11 16 8 25 -3 8 -2 18
4 21 5 4 7 10 4 15 -3 5 -1 11 5 15 7 4 6 13 -1 27 -9 16 -8 19 1 13 10 -6 12
-1 8 18 -3 15 -1 28 5 30 5 1 11 20 13 40 1 21 8 45 15 54 12 14 12 16 -1 8
-13 -8 -13 -6 -1 8 7 9 11 24 7 32 -3 8 -1 15 3 15 5 0 12 7 15 16 3 8 2 12
-4 9 -6 -3 -7 1 -4 9 3 9 9 16 13 16 4 0 8 6 8 13 0 6 4 26 8 42 4 17 7 38 6
48 0 9 4 15 8 13 4 -3 7 15 6 39 -1 25 0 43 4 41 3 -2 6 21 5 52 0 32 2 62 5
67 8 15 7 39 -3 46 -4 4 -3 15 2 25 7 13 7 25 0 38 -8 15 -8 17 2 11 9 -6 12
-4 8 6 -3 8 2 21 10 29 14 13 15 12 9 -4 -6 -16 -5 -17 8 -6 9 7 15 8 15 2 0
-5 10 -8 22 -4 16 4 19 2 13 -9 -7 -12 -6 -12 7 -1 12 10 18 9 28 -4 8 -8 22
-13 32 -11 11 3 18 0 18 -8 0 -9 10 -12 30 -10 18 3 28 0 25 -5 -4 -6 1 -10 9
-10 9 0 16 -6 16 -12 0 -9 4 -8 10 2 5 8 10 10 10 4 0 -6 7 -11 15 -12 8 -1
22 -3 30 -4 8 -1 15 -6 15 -11 0 -5 8 -3 18 4 9 7 14 9 10 5 -13 -15 13 -38
27 -26 9 8 15 8 20 0 3 -5 15 -10 26 -10 10 0 19 -4 19 -10 0 -5 14 -10 30
-10 17 0 30 -4 30 -9 0 -5 7 -12 16 -15 8 -3 13 -2 10 3 -3 5 10 1 29 -7 19
-9 32 -19 29 -23 -2 -5 5 -6 16 -4 11 2 20 0 20 -6 0 -5 3 -8 8 -8 18 3 33 -2
28 -10 -3 -4 6 -6 19 -3 15 2 25 0 25 -7 0 -7 4 -10 9 -6 5 3 12 1 16 -4 3 -6
12 -8 20 -4 8 3 15 -1 15 -8 0 -7 3 -9 7 -6 3 4 13 1 21 -6 13 -9 14 -9 8 0
-5 9 -2 11 8 7 9 -3 16 -11 16 -18 0 -6 5 -4 10 4 8 13 10 13 10 -2 0 -11 5
-15 15 -12 8 4 15 1 15 -5 0 -6 3 -10 8 -10 19 3 30 -2 36 -17 3 -8 2 -12 -4
-9 -6 3 -7 -1 -4 -9 3 -9 11 -13 18 -9 6 4 4 -2 -4 -13 -22 -29 -24 -30 -16
-10 5 16 4 17 -9 6 -9 -7 -13 -15 -10 -18 2 -3 -3 -11 -13 -19 -9 -8 -11 -11
-3 -7 9 5 12 3 7 -4 -4 -7 -13 -12 -21 -12 -8 0 -17 -4 -20 -10 -3 -6 1 -7 12
-4 13 4 13 2 -3 -8 -12 -7 -19 -19 -17 -26 3 -7 -1 -11 -9 -10 -7 2 -12 -3
-10 -9 1 -7 -5 -13 -14 -13 -11 0 -14 -5 -10 -16 4 -12 2 -15 -9 -10 -8 3 -14
2 -14 -2 4 -24 -3 -42 -17 -42 -8 0 -13 -4 -9 -9 3 -5 0 -13 -6 -16 -5 -4 -8
-14 -4 -22 5 -14 3 -14 -12 -2 -10 7 -15 10 -11 5 11 -13 -11 -48 -24 -40 -7
4 -8 3 -4 -5 4 -6 0 -14 -9 -17 -11 -5 -13 -10 -5 -19 13 -15 -3 -30 -20 -20
-6 4 -9 3 -8 -2 4 -14 -13 -53 -23 -53 -6 0 -7 -4 -4 -10 3 -5 2 -10 -4 -10
-6 0 -8 -7 -5 -15 4 -8 -1 -17 -10 -21 -9 -3 -14 -10 -11 -14 3 -4 -2 -11 -11
-14 -14 -5 -14 -9 -3 -23 8 -9 9 -14 3 -10 -6 3 -21 -17 -35 -48 -14 -29 -21
-51 -17 -49 4 3 8 0 8 -5 0 -6 -8 -11 -17 -11 -9 0 -13 -3 -10 -7 4 -3 -1 -15
-10 -26 -10 -11 -12 -17 -5 -13 17 10 15 -2 -3 -20 -8 -9 -15 -24 -15 -35 0
-10 -4 -19 -10 -19 -5 0 -12 -16 -16 -35 -4 -21 -10 -32 -17 -28 -6 4 -8 -2
-5 -15 4 -15 2 -22 -8 -22 -8 0 -13 -3 -12 -7 1 -5 -3 -17 -9 -28 -6 -11 -11
-24 -12 -30 0 -5 -8 -18 -16 -27 -8 -10 -12 -18 -8 -18 4 0 -2 -7 -13 -15 -11
-8 -14 -14 -6 -15 8 0 6 -7 -7 -22 -11 -11 -18 -25 -15 -30 3 -4 0 -8 -5 -8
-6 0 -11 -6 -11 -14 0 -8 -7 -17 -16 -20 -8 -3 -12 -11 -8 -17 3 -6 0 -15 -7
-20 -12 -7 -12 -9 0 -9 11 0 10 -4 -4 -14 -11 -8 -16 -19 -12 -30 4 -9 3 -15
-2 -12 -5 3 -15 -2 -22 -11 -10 -12 -10 -14 -1 -9 18 11 15 -2 -7 -30 -11 -14
-18 -34 -16 -44 2 -11 -1 -19 -8 -17 -7 1 -11 -6 -9 -17 2 -11 -1 -15 -7 -11
-7 4 -11 -4 -11 -20 0 -14 -4 -24 -8 -21 -4 2 -7 -8 -6 -22 1 -15 -3 -32 -8
-39 -5 -7 -5 -14 1 -17 5 -4 8 -18 5 -32 -3 -17 -1 -23 7 -19 8 5 9 1 4 -14
-4 -14 -2 -21 6 -21 7 0 9 -3 6 -7 -4 -3 -1 -13 6 -21 8 -11 8 -13 0 -9 -8 5
-8 1 0 -17 7 -13 16 -22 20 -19 5 3 4 -4 -2 -15 -9 -17 -8 -23 6 -31 10 -6 13
-11 6 -11 -11 0 -12 -24 -1 -36 4 -3 4 -13 1 -22 -5 -11 -2 -13 8 -8 8 4 3 -3
-11 -15 -16 -14 -19 -20 -8 -16 10 3 20 2 23 -3 4 -6 -2 -10 -12 -10 -11 0
-24 -5 -31 -12 -9 -9 -12 -8 -12 5 0 15 -2 16 -14 5 -8 -7 -12 -16 -9 -20 2
-4 -4 -5 -13 -1 -13 5 -15 3 -9 -7 6 -10 4 -12 -8 -7 -19 7 -36 -11 -32 -35 2
-10 -2 -21 -7 -25 -7 -4 -8 -1 -3 8 8 12 6 12 -8 1 -9 -8 -16 -17 -15 -20 3
-24 -4 -33 -18 -28 -14 5 -15 4 -4 -9 8 -10 9 -15 1 -15 -6 0 -11 -7 -11 -16
0 -9 -5 -12 -12 -8 -8 5 -9 2 -5 -9 4 -10 2 -16 -6 -14 -7 1 -11 -4 -9 -11 1
-7 -5 -15 -13 -18 -8 -3 -12 -10 -9 -15 3 -5 -2 -12 -10 -15 -9 -3 -16 -10
-16 -16 0 -5 6 -6 13 -2 9 6 9 5 0 -8 -7 -8 -9 -19 -5 -23 4 -5 2 -5 -4 -2
-18 10 -20 -8 -16 -128 5 -168 5 -175 12 -175 4 0 7 -6 7 -12 0 -7 4 -31 8
-53 4 -22 8 -48 8 -57 1 -10 4 -18 8 -18 4 0 5 -9 2 -20 -3 -13 0 -20 8 -20
11 0 11 -2 -1 -10 -8 -5 -10 -10 -4 -10 7 0 11 -16 10 -39 0 -22 3 -37 8 -33
5 3 7 -2 3 -11 -3 -10 -3 -17 2 -17 7 0 9 -7 13 -50 1 -11 5 -20 8 -20 3 0 11
-9 18 -21 10 -16 10 -19 1 -13 -9 5 -10 2 -6 -10 4 -10 10 -29 13 -42 3 -13
11 -21 16 -18 6 4 5 -4 -2 -16 -8 -15 -8 -20 -1 -16 7 4 11 -1 11 -12 0 -10 3
-22 8 -26 4 -4 7 -13 7 -19 1 -7 7 -11 14 -9 7 1 10 -2 7 -7 -9 -14 4 -41 21
-41 8 0 12 -4 9 -9 -4 -5 7 -15 24 -23 16 -7 30 -16 30 -19 0 -4 7 -10 16 -13
10 -4 13 -2 8 7 -5 8 -2 7 9 -2 9 -7 17 -10 17 -5 0 4 7 -1 16 -12 15 -19 16
-19 10 1 -5 18 -5 18 7 4 14 -19 54 -34 80 -30 9 1 17 -2 17 -6 0 -5 45 -10
100 -10 54 -1 104 -4 110 -8 5 -3 10 -1 10 6 0 7 4 8 13 2 6 -5 24 -8 40 -7
19 2 25 -1 20 -9 -4 -7 0 -6 10 2 14 11 20 11 34 0 10 -8 14 -9 10 -2 -5 8 0
11 13 10 13 -1 19 -6 15 -16 -4 -11 -2 -11 8 -3 8 7 17 9 20 5 4 -3 14 0 24 8
11 9 14 10 9 2 -5 -9 2 -13 26 -14 18 0 43 -2 56 -3 12 -2 22 1 22 6 0 5 6 6
12 1 7 -4 25 -6 40 -4 18 1 28 -2 28 -11 0 -8 3 -9 8 -3 10 14 32 17 32 5 0
-7 6 -7 18 -2 9 5 23 7 30 5 6 -3 12 0 12 5 0 6 11 9 25 7 26 -2 52 25 37 39
-3 4 1 4 11 0 12 -4 17 -1 17 11 0 9 5 13 10 10 6 -3 10 -1 10 5 0 6 5 8 10 5
6 -3 10 1 10 9 0 9 5 16 10 16 6 0 9 3 8 8 -3 15 15 42 24 36 6 -4 9 -1 6 7
-3 8 2 20 11 27 9 8 11 11 4 8 -8 -5 -8 0 0 18 7 13 16 22 21 19 5 -4 6 -1 3
5 -9 14 3 43 14 36 5 -3 4 7 -1 22 -9 23 -8 25 3 15 12 -9 14 -7 12 14 -2 14
1 25 7 25 7 0 6 5 -1 14 -9 11 -9 16 0 22 8 5 9 3 4 -6 -5 -9 -4 -11 4 -6 7 5
8 13 2 23 -4 9 -6 25 -3 36 4 15 2 18 -9 12 -12 -8 -12 -6 0 8 8 10 9 17 3 17
-6 0 -9 11 -6 26 3 18 1 23 -7 18 -9 -5 -10 -2 -6 9 4 10 2 17 -5 17 -7 0 -6
5 2 15 10 12 9 15 -6 16 -12 0 -14 3 -6 6 10 4 9 8 -4 17 -13 10 -14 15 -4 21
9 6 11 4 5 -5 -6 -9 -4 -11 5 -5 11 6 10 10 -2 19 -16 13 -33 50 -18 41 6 -3
7 1 4 9 -3 9 -11 16 -16 16 -6 0 -4 8 3 17 10 11 10 14 2 9 -9 -5 -13 0 -13
13 0 12 -6 21 -12 21 -9 0 -8 4 2 10 13 8 12 10 -4 10 -12 0 -16 5 -12 16 3 8
2 13 -3 10 -5 -3 -20 4 -35 15 -17 14 -33 18 -47 14 -16 -5 -19 -4 -14 5 6 10
4 11 -6 4 -14 -9 -19 -10 -40 -13 -5 0 -7 -6 -4 -11 4 -6 11 -7 17 -4 7 4 8 2
4 -4 -5 -9 -13 -9 -26 -2 -15 8 -24 6 -38 -8 -17 -17 -20 -18 -31 -3 -6 9 -9
10 -5 2 5 -9 3 -12 -4 -7 -9 5 -9 13 -2 27 7 13 7 19 0 19 -5 0 -10 5 -10 11
0 5 5 7 11 3 8 -4 8 0 0 15 -10 18 -9 20 6 14 15 -6 16 -4 6 8 -9 11 -8 18 1
31 7 10 16 15 19 11 4 -3 7 4 7 16 0 12 3 20 8 17 4 -2 12 7 19 20 8 18 8 22
0 18 -7 -4 -2 3 11 16 13 12 21 29 18 37 -3 8 -1 11 4 8 6 -3 10 -1 10 5 0 6
5 8 10 5 6 -3 13 1 16 9 3 9 10 13 15 10 5 -3 9 0 9 6 0 6 5 8 10 5 6 -3 10
-1 10 5 0 7 7 10 15 6 8 -3 15 -1 15 4 0 6 11 10 25 10 14 0 25 5 25 11 0 5 5
7 10 4 6 -4 17 -1 25 5 8 7 15 10 15 7 0 -3 11 4 23 16 25 23 50 81 39 92 -4
3 1 3 11 -1 15 -5 16 -3 7 20 -5 15 -6 25 -1 22 5 -3 11 4 14 16 4 12 9 19 13
15 9 -8 45 63 38 75 -3 5 0 7 8 6 7 -2 13 6 13 16 0 11 6 21 13 24 6 2 9 9 6
14 -4 6 -2 8 3 5 6 -4 17 1 24 10 10 12 10 14 2 9 -7 -4 -13 -2 -13 3 0 6 5
11 11 11 5 0 8 4 5 9 -3 5 1 11 9 15 8 3 15 12 15 20 0 8 5 18 12 22 7 5 8 3
3 -6 -5 -9 -4 -11 4 -6 6 4 9 11 6 16 -3 5 2 18 12 29 34 37 42 49 36 55 -3 3
5 14 18 25 13 11 20 20 15 21 -6 0 -1 7 10 16 10 8 12 12 4 8 -13 -7 -13 -5
-1 9 7 9 18 14 25 10 6 -4 4 2 -4 12 -9 11 -10 16 -2 11 7 -4 12 -2 12 7 0 8
6 17 14 20 8 3 20 22 27 41 7 20 19 36 26 36 7 0 10 7 7 15 -4 8 -2 15 3 15 5
0 10 7 11 15 1 8 3 22 4 30 1 8 5 12 9 9 10 -6 31 31 22 40 -3 3 -1 6 5 6 7 0
11 3 11 8 -3 19 2 33 11 27 6 -3 10 3 10 13 0 11 7 22 15 26 8 3 14 9 13 13
-1 4 3 18 10 29 6 12 9 24 6 27 -3 3 4 8 17 12 15 5 18 9 9 15 -7 4 -9 13 -6
19 4 6 12 8 18 5 7 -5 9 -1 5 9 -4 10 0 20 11 26 12 7 13 10 3 11 -8 0 -4 8
10 21 13 11 18 18 12 14 -7 -3 -13 -2 -13 3 0 6 7 13 16 16 9 4 14 13 10 21
-3 8 -1 15 5 15 6 0 9 6 6 14 -3 8 2 20 11 28 16 12 16 11 2 -7 -14 -18 -14
-19 2 -7 9 7 15 22 13 32 -2 10 3 21 11 24 9 3 12 11 8 18 -5 7 -2 9 8 6 11
-5 14 0 12 18 -1 13 2 24 7 24 4 0 5 8 2 17 -5 13 -3 15 12 9 11 -4 16 -4 13
0 -4 3 0 21 9 38 10 17 16 34 15 39 -1 4 3 7 9 7 6 0 9 7 5 15 -3 8 0 14 6 12
7 -1 13 5 13 13 2 27 27 80 37 80 5 0 7 4 3 9 -3 5 -1 12 5 16 6 4 8 11 5 16
-4 5 -1 9 6 9 7 0 9 3 6 7 -4 3 1 12 11 20 16 12 16 13 -3 7 -19 -5 -19 -5 -2
9 9 8 17 22 17 31 0 9 4 16 10 16 5 0 7 7 4 15 -4 9 0 15 7 15 12 0 12 2 1 9
-11 7 -9 13 10 31 12 13 17 20 11 16 -7 -4 -13 -2 -13 3 0 6 5 11 10 11 6 0
10 9 10 21 0 13 4 18 13 13 9 -6 9 -4 -1 8 -10 13 -10 17 3 22 9 3 14 10 10
15 -3 5 -1 12 5 16 6 4 8 11 5 16 -4 5 -1 9 5 9 7 0 10 6 7 14 -3 7 0 19 6 25
6 6 7 11 3 11 -5 0 -3 7 4 15 7 8 9 15 5 15 -4 0 -2 7 5 15 10 12 10 15 0 15
-10 0 -10 3 -1 14 7 8 13 34 14 58 1 23 7 46 12 50 6 5 5 8 -2 8 -9 0 -10 7
-2 27 7 19 6 28 -2 33 -6 4 -7 10 -2 13 10 6 9 44 -2 69 -4 9 -4 22 0 28 3 5
1 10 -5 10 -6 0 -9 4 -6 9 4 5 0 12 -6 14 -10 4 -10 6 0 6 7 1 4 9 -8 21 -11
11 -20 32 -20 46 0 21 -3 24 -13 16 -10 -9 -13 -5 -11 18 1 17 -2 30 -7 30 -5
0 -9 7 -9 16 0 9 -5 12 -12 8 -8 -5 -9 -2 -5 9 3 9 1 22 -6 29 -7 7 -12 22
-12 33 0 11 -7 26 -15 33 -13 12 -13 13 0 7 8 -4 4 3 -10 15 -14 12 -24 24
-22 26 6 11 1 24 -8 19 -5 -3 -10 1 -10 9 0 9 -5 16 -11 16 -5 0 -7 4 -4 10 3
5 -1 10 -10 10 -9 0 -13 5 -10 10 3 6 1 10 -5 10 -6 0 -8 5 -5 10 4 6 1 9 -7
8 -7 -2 -12 5 -12 15 1 10 0 16 -3 13 -7 -7 -33 20 -33 33 0 6 -7 11 -15 11
-9 0 -12 6 -8 17 4 11 3 14 -5 9 -7 -4 -12 -1 -12 7 0 8 -6 17 -14 20 -8 3
-22 22 -32 42 -12 26 -19 33 -25 23 -6 -9 -9 -3 -9 17 0 23 -3 27 -10 15 -7
-11 -10 -11 -10 -2 0 8 -5 10 -12 6 -10 -5 -10 -4 -1 6 10 11 8 17 -9 32 -12
10 -25 18 -30 18 -4 0 -7 3 -7 8 3 20 -2 32 -13 30 -7 -2 -12 3 -10 10 2 11
-10 16 -30 13 -5 0 -8 4 -8 9 0 6 -11 20 -24 31 -14 12 -30 35 -37 51 -9 21
-14 26 -20 16 -7 -10 -9 -8 -9 5 0 10 -4 15 -10 12 -6 -4 -7 1 -3 11 5 14 3
16 -11 11 -10 -4 -15 -3 -11 3 3 6 1 10 -5 10 -7 0 -10 7 -7 15 4 8 1 17 -5
21 -7 4 -8 3 -4 -4 10 -16 -2 -15 -19 2 -10 10 -11 16 -3 24 9 9 6 10 -10 7
-17 -3 -22 1 -22 16 0 10 -5 19 -12 19 -6 0 -9 3 -5 6 3 4 0 13 -8 20 -17 17
-29 18 -19 2 4 -7 3 -8 -5 -4 -9 6 -9 11 -1 21 9 11 6 14 -12 17 -16 2 -22 9
-20 22 2 11 -1 15 -7 11 -6 -3 -11 -1 -11 6 0 7 -3 10 -6 6 -11 -10 -56 52
-48 65 6 10 4 10 -9 0 -14 -12 -16 -11 -12 7 2 14 -1 21 -11 21 -8 0 -14 5
-14 10 0 6 -5 10 -11 10 -5 0 -7 -4 -4 -10 10 -16 -1 -11 -16 7 -10 11 -10 14
-1 9 7 -4 12 -1 12 8 0 10 -6 13 -17 9 -12 -5 -15 -2 -10 10 3 9 1 19 -5 23
-7 4 -8 3 -4 -4 4 -7 0 -12 -10 -12 -10 0 -15 3 -11 6 8 8 -25 44 -35 38 -7
-5 -10 3 -7 23 1 11 -30 25 -41 18 -6 -4 -10 -3 -9 2 4 20 -2 33 -15 33 -7 0
-21 16 -31 36 -9 19 -26 39 -38 44 -25 10 -58 46 -50 54 4 3 -1 6 -10 6 -15 0
-22 12 -18 33 1 4 -9 3 -21 -4 -13 -6 -20 -9 -17 -5 8 8 -37 56 -53 56 -5 0
-8 6 -5 14 4 10 0 12 -16 8 -20 -5 -21 -4 -7 13 9 11 10 16 2 11 -8 -5 -29 11
-59 43 -38 41 -49 48 -61 38 -13 -10 -14 -8 -7 13 7 22 6 23 -7 12 -13 -10
-17 -10 -22 4 -3 9 -4 20 -1 24 3 5 -6 7 -19 6 -19 -2 -23 1 -19 18 4 17 3 18
-6 6 -8 -11 -11 -12 -11 -2 0 7 -4 10 -10 7 -5 -3 -10 1 -10 10 0 12 -5 15
-16 11 -15 -6 -15 -4 -3 11 8 9 9 14 2 10 -7 -4 -17 0 -23 10 -11 16 -11 16
-5 -2 4 -15 -1 -12 -18 9 -17 21 -29 27 -42 22 -15 -5 -16 -4 -5 9 7 9 9 15 4
14 -21 -4 -34 2 -34 15 0 9 -9 13 -24 12 -19 -3 -24 1 -21 16 4 17 2 18 -12 6
-10 -8 -14 -8 -10 -1 5 7 -5 16 -27 24 -20 7 -32 17 -29 23 4 6 -1 5 -11 -3
-15 -13 -18 -12 -23 7 -3 13 -13 22 -25 22 -12 0 -17 4 -12 12 5 7 2 9 -8 5
-11 -4 -18 1 -21 14 -4 16 -9 18 -31 9 -24 -9 -26 -8 -17 8 7 14 6 19 -4 19
-8 0 -12 -5 -9 -11 3 -6 -3 0 -14 13 -11 13 -24 21 -31 17 -6 -4 -11 -3 -11 3
0 5 6 12 13 14 6 3 -4 3 -23 0 -20 -2 -30 -1 -24 4 9 6 8 11 -2 21 -9 8 -14 9
-14 2 0 -7 -5 -6 -14 2 -10 9 -11 15 -2 20 6 4 -3 8 -20 8 -31 0 -51 21 -39
41 4 5 -2 6 -11 2 -13 -5 -15 -3 -9 8 7 11 5 11 -10 -1 -17 -14 -18 -13 -12 2
4 13 2 15 -10 11 -12 -5 -14 -3 -8 6 6 10 2 11 -15 6 -15 -5 -20 -3 -16 3 3 6
2 13 -4 17 -5 3 -10 0 -10 -7 0 -10 -3 -9 -9 2 -6 8 -7 18 -4 24 3 5 1 6 -5 2
-5 -3 -12 -3 -15 1 -2 5 -2 2 -1 -4 6 -22 -14 -14 -21 8 -5 15 -10 18 -15 9
-5 -8 -9 -7 -14 6 -3 9 -9 14 -12 11 -4 -3 -15 4 -26 16 -11 12 -17 17 -14 10
4 -7 -1 -11 -13 -10 -14 1 -17 5 -11 12 7 8 0 10 -22 7 -21 -3 -29 -1 -24 7 5
7 -2 11 -18 11 -18 0 -26 5 -26 18 0 14 -2 15 -10 2 -8 -13 -10 -12 -10 3 0
10 -4 16 -9 13 -5 -3 -12 1 -15 10 -5 13 -9 14 -21 4 -11 -9 -15 -9 -15 -1 0
7 -5 9 -12 5 -6 -4 -8 -3 -5 3 4 6 -6 19 -21 29 -24 15 -25 15 -13 1 8 -10 9
-17 3 -17 -6 0 -16 8 -21 18 -8 13 -10 14 -11 2 0 -13 -1 -13 -10 0 -5 8 -12
12 -15 8 -4 -3 -22 0 -40 8 -24 10 -36 11 -41 3 -4 -8 -9 -7 -14 2 -7 10 -11
10 -24 0 -12 -10 -16 -11 -16 -1 0 7 -7 10 -15 6 -20 -7 -46 4 -38 17 4 6 0 8
-10 4 -19 -7 -23 9 -4 17 8 4 7 5 -3 5 -28 -2 -43 1 -37 7 3 3 -3 16 -14 27
-11 12 -17 27 -14 34 3 10 0 11 -14 3 -13 -7 -20 -7 -23 1 -2 5 -13 11 -25 12
-12 0 -19 5 -17 9 4 7 -17 12 -38 10 -3 -1 -12 6 -20 16 -12 16 -11 16 7 2 19
-14 19 -14 6 3 -8 9 -16 15 -19 12 -3 -3 -12 1 -20 8 -11 8 -13 8 -9 0 5 -7 0
-9 -14 -6 -16 5 -18 8 -7 15 9 7 8 8 -7 6 -11 -2 -26 3 -33 12 -8 8 -11 10 -8
3 5 -8 0 -8 -19 0 -14 7 -25 15 -25 20 0 4 -9 7 -20 7 -11 0 -20 5 -20 10 0 6
-7 10 -16 10 -8 0 -12 5 -9 10 4 6 3 10 -2 9 -28 -5 -53 3 -53 16 0 13 -4 14
-21 4 -12 -6 -19 -7 -16 -2 3 5 2 15 -4 23 -7 13 -9 12 -9 -2 0 -17 -1 -17
-19 -1 -11 9 -18 20 -15 25 3 4 -3 5 -12 1 -11 -4 -15 -3 -11 4 4 6 1 13 -5
16 -7 2 -10 8 -6 12 4 4 16 2 25 -6 15 -11 16 -11 6 1 -10 10 -8 19 8 42 11
15 27 28 35 28 8 0 14 7 14 16 0 8 3 13 8 10 4 -2 16 3 27 11 17 13 17 15 2 9
-11 -3 -16 -2 -12 4 3 6 12 10 20 10 8 0 17 5 21 12 5 7 3 8 -6 3 -9 -5 -11
-4 -6 3 4 7 15 12 24 12 15 0 15 2 2 10 -13 8 -12 10 2 10 10 0 17 3 17 8 -4
21 2 32 13 26 8 -5 9 -2 5 9 -4 10 -2 16 6 14 7 -1 11 6 9 17 -2 10 1 15 6 12
12 -7 43 54 35 68 -3 5 -1 6 5 2 7 -4 12 -1 12 8 0 9 5 16 10 16 6 0 10 7 10
15 0 8 5 15 11 15 6 0 8 7 5 16 -3 8 -2 13 3 10 5 -3 15 2 22 11 10 12 10 14
2 9 -7 -4 -13 -2 -13 3 0 6 7 11 15 11 9 0 12 6 8 17 -5 12 -3 14 7 8 10 -6
12 -4 7 9 -4 9 -3 15 1 13 11 -7 29 17 26 35 -1 11 3 15 12 11 10 -4 12 0 7
13 -6 17 -5 17 10 5 14 -11 17 -11 17 0 0 11 3 11 11 -1 8 -11 12 -12 16 -3 3
10 9 9 21 -3 11 -12 17 -13 20 -5 3 9 10 7 24 -6 11 -9 19 -13 18 -8 -5 22 1
29 11 15 8 -11 12 -12 16 -2 2 6 9 9 14 6 6 -3 16 -1 23 5 7 6 22 9 34 6 15
-2 19 0 15 11 -3 8 0 14 6 14 6 0 11 -6 12 -12 0 -7 4 -3 10 10 5 13 13 21 18
17 6 -3 15 3 21 12 9 15 10 14 4 -7 -6 -24 -5 -24 8 -6 8 10 19 16 25 13 5 -3
10 0 10 8 0 8 -5 11 -10 8 -6 -3 -7 -1 -3 5 4 6 14 8 23 5 11 -4 14 -3 9 6 -5
8 -3 12 5 10 27 -3 40 1 34 11 -3 6 -1 10 6 10 8 0 8 4 1 13 -8 10 -6 13 9 13
12 0 18 -5 15 -13 -3 -7 -3 -13 0 -13 3 0 10 13 15 30 6 17 16 27 22 23 7 -4
8 0 3 12 -6 16 -4 16 11 4 15 -13 16 -12 11 9 -5 19 -4 21 8 11 12 -10 13 -9
8 5 -4 10 0 18 10 22 22 8 20 25 -1 17 -15 -5 -14 -3 2 10 11 8 24 13 30 9 5
-3 4 2 -4 11 -9 12 -10 17 -2 17 9 0 9 5 1 20 -8 15 -8 18 3 14 8 -3 14 2 14
11 0 10 -6 14 -16 10 -12 -4 -11 -1 2 9 18 14 18 15 0 26 -16 10 -16 11 0 6 9
-3 17 -3 17 1 0 3 -8 12 -17 19 -15 12 -15 13 -2 8 18 -6 34 22 18 32 -6 4 -5
11 3 22 12 14 10 14 -12 2 -22 -12 -24 -11 -13 2 7 8 10 18 6 21 -3 4 -1 7 5
7 7 0 12 5 12 11 0 5 -4 7 -10 4 -5 -3 -10 0 -10 9 0 8 5 16 12 18 9 3 9 6 0
12 -7 4 -12 2 -12 -4 0 -6 -5 -8 -10 -5 -8 5 -7 11 1 21 8 10 8 14 0 14 -6 0
-11 5 -11 11 0 5 6 7 13 3 8 -5 8 -2 -2 9 -16 20 -26 23 -15 5 5 -9 3 -9 -9 1
-9 7 -15 17 -12 21 3 5 1 11 -5 15 -5 3 -10 17 -10 31 0 13 -4 24 -9 24 -5 0
-11 7 -14 14 -4 9 -1 14 6 12 7 -1 9 -1 5 1 -5 3 -8 12 -8 21 0 13 -3 12 -15
-4 -14 -18 -14 -17 -4 11 8 24 8 28 -2 18 -7 -7 -18 -13 -23 -13 -6 0 -4 5 4
10 12 7 13 13 3 27 -6 10 -16 17 -23 15 -6 -1 -9 2 -5 8 3 6 11 8 16 5 5 -4 9
-1 9 4 0 6 -5 11 -11 11 -5 0 -8 4 -5 9 3 5 16 7 29 4 12 -3 18 -1 12 4 -5 4
-10 18 -11 30 0 19 2 20 20 11 19 -10 20 -9 8 5 -12 14 -11 16 8 12 19 -4 20
-2 8 12 -9 12 -9 15 0 9 6 -4 12 -3 12 3 0 6 7 8 15 5 8 -4 15 -2 15 4 0 6 -6
13 -12 15 -8 3 -5 6 5 6 10 1 15 6 12 11 -3 6 1 17 9 26 9 9 14 20 11 25 -4 5
-1 9 5 9 7 0 10 6 7 14 -3 8 1 17 10 20 9 4 13 9 10 13 -4 3 -2 12 3 19 6 6 9
18 8 25 -2 8 2 13 8 12 7 -1 12 8 12 20 1 40 10 78 24 94 11 14 11 15 0 9 -11
-7 -11 -4 0 13 7 12 19 21 26 21 7 0 10 5 7 10 -3 6 -1 10 5 10 6 0 9 4 6 9
-3 5 1 12 10 15 8 3 12 10 9 16 -3 5 -1 10 4 10 6 0 10 6 9 13 -2 6 2 11 9 10
7 -2 10 6 8 18 -2 12 2 22 11 26 13 5 13 7 2 14 -10 7 -10 9 0 9 6 0 12 7 12
16 0 9 5 12 13 8 7 -5 6 0 -3 11 -9 11 -10 16 -2 11 8 -5 14 2 18 24 4 20 11
29 20 26 8 -3 11 2 9 15 -2 10 0 19 6 19 5 0 9 7 9 16 0 8 4 13 9 9 6 -3 8 4
6 15 -2 11 3 24 13 30 13 7 14 9 3 10 -12 0 -12 3 -3 12 17 17 16 62 0 52 -9
-5 -9 -2 1 9 11 14 11 17 0 17 -10 0 -10 3 -2 11 6 6 9 18 6 27 -5 11 -2 13 6
7 10 -6 11 -3 2 13 -8 15 -8 22 2 25 9 4 8 6 -2 6 -11 1 -11 4 -1 16 7 8 8 15
3 15 -13 0 -6 74 7 78 6 2 3 10 -7 18 -12 9 -13 13 -5 14 7 0 10 5 7 10 -4 6
-2 17 5 25 8 9 8 15 0 20 -7 4 -8 11 -1 18 14 18 14 29 -1 38 -8 6 -9 9 -1 9
7 0 10 17 10 45 -1 25 1 45 4 45 9 0 -2 49 -13 56 -5 3 -4 12 3 20 9 11 8 14
-2 14 -11 0 -11 2 1 10 8 5 10 10 5 10 -6 0 -12 12 -13 28 -1 15 -7 29 -13 30
-6 3 -6 9 2 18 8 10 8 14 0 14 -6 0 -10 3 -10 8 4 21 -2 32 -13 26 -8 -5 -7 0
2 11 9 11 10 16 3 11 -9 -5 -13 0 -13 13 0 12 -4 21 -9 21 -5 0 -8 11 -6 25 1
17 -3 25 -14 25 -14 0 -14 2 -1 10 12 8 12 10 -5 10 -15 0 -17 2 -6 9 10 7 11
9 1 13 -7 2 -15 15 -17 28 -2 12 -11 29 -21 37 -9 8 -11 12 -5 8 9 -4 11 -1 7
9 -3 9 -10 16 -15 16 -4 0 -6 7 -3 15 4 9 -1 18 -11 21 -13 5 -14 9 -3 15 10
7 11 9 0 9 -7 0 -10 5 -7 10 3 6 1 10 -5 10 -6 0 -9 4 -5 9 3 5 1 12 -5 16 -6
4 -8 10 -5 15 3 5 0 12 -6 16 -8 5 -9 3 -4 -6 5 -9 4 -11 -3 -6 -7 4 -12 16
-12 27 0 11 -4 17 -10 14 -9 -5 -14 17 -7 30 1 2 -8 12 -20 20 -13 9 -20 22
-17 30 4 8 -1 18 -10 21 -9 3 -16 12 -16 20 0 8 -4 14 -10 14 -5 0 -10 7 -10
15 0 9 -7 18 -16 22 -8 3 -13 12 -10 20 3 8 2 12 -2 9 -12 -7 -42 20 -47 44
-2 13 -11 30 -20 40 -8 9 -14 23 -12 31 2 8 2 11 0 7 -3 -4 -15 3 -27 15 -13
12 -21 25 -19 30 2 4 -6 7 -17 7 -16 0 -20 4 -16 16 3 8 2 13 -3 10 -4 -3 -17
2 -27 10 -10 9 -12 12 -4 8 9 -4 7 2 -5 13 -11 11 -23 19 -27 16 -5 -2 -8 2
-8 10 0 8 -15 22 -32 31 -18 8 -29 16 -23 16 5 0 -1 7 -13 16 -13 9 -21 22
-18 30 3 8 2 13 -2 11 -4 -1 -18 9 -32 23 -14 14 -24 28 -23 32 2 4 -5 4 -14
1 -11 -4 -14 -3 -9 5 4 7 2 12 -3 12 -6 0 -11 6 -11 14 0 8 -7 17 -16 20 -8 3
-13 10 -10 15 3 5 -1 12 -10 15 -8 3 -12 10 -9 16 4 6 -1 7 -11 3 -12 -4 -15
-3 -10 5 4 7 2 12 -4 12 -6 0 -8 5 -5 10 3 6 -1 10 -9 10 -9 0 -16 7 -16 16 0
9 -5 12 -12 8 -8 -5 -9 -2 -5 10 5 12 -1 19 -19 26 -18 7 -24 15 -20 27 5 13
4 14 -8 4 -11 -10 -16 -8 -20 7 -4 11 -16 22 -27 25 -12 3 -18 10 -15 16 4 6
-5 13 -19 17 -14 3 -25 10 -25 16 0 5 -5 6 -10 3 -6 -4 -22 1 -37 10 -15 10
-22 12 -18 4 5 -7 -1 -6 -14 4 -13 8 -30 13 -39 10 -10 -4 -13 -2 -8 5 5 8 -1
12 -18 12 -14 0 -26 5 -26 10 0 6 -5 10 -11 10 -5 0 -7 -6 -3 -12 4 -7 -1 -6
-12 3 -32 26 -48 34 -39 18 6 -10 3 -9 -11 2 -10 9 -25 14 -31 12 -7 -3 -13 1
-13 9 0 10 -3 9 -10 -2 -6 -9 -10 -10 -10 -3 0 10 -39 30 -48 24 -2 -1 -10 6
-19 16 -8 10 -12 13 -9 6 5 -8 0 -8 -19 0 -14 7 -25 16 -25 21 0 5 -8 2 -17
-5 -9 -8 -14 -9 -10 -3 7 13 -9 30 -33 36 -8 2 -23 11 -34 21 -11 9 -27 17
-37 17 -9 0 -24 10 -33 23 -9 12 -14 16 -11 10 4 -8 1 -11 -9 -7 -9 3 -16 12
-16 19 0 8 -5 17 -12 21 -7 4 -8 3 -4 -4 5 -8 2 -10 -8 -6 -9 3 -14 10 -11 14
3 4 -2 11 -11 14 -8 3 -12 2 -9 -4 3 -6 -1 -7 -9 -4 -9 3 -14 9 -13 13 2 3 -4
14 -15 24 -10 9 -18 14 -18 11 0 -3 -8 2 -17 13 -10 10 -16 14 -13 8 3 -6 -3
-3 -12 8 -10 10 -23 15 -29 11 -7 -4 -9 -3 -6 3 4 5 -4 15 -16 21 -30 15 -77
21 -77 11 0 -5 -5 -9 -11 -9 -5 0 -7 5 -4 10 9 15 1 12 -19 -7z m1471 -4088
c0 -8 -4 -12 -9 -9 -5 3 -6 10 -3 15 9 13 12 11 12 -6z m-7620 -514 c12 11 17
10 25 -5 8 -14 12 -15 26 -4 15 12 16 11 4 -4 -12 -14 -10 -19 15 -32 15 -8
24 -15 20 -16 -5 0 -18 5 -30 12 -12 7 -30 13 -41 15 -16 3 -17 1 -5 -14 12
-16 12 -17 -2 -6 -9 7 -19 10 -22 6 -4 -3 -7 -1 -7 5 0 7 5 12 10 12 6 0 10 5
10 10 0 6 -3 9 -7 9 -22 -4 -31 3 -28 19 6 28 7 28 12 4 4 -19 7 -21 20 -11z
m90 -18 c-4 -3 1 -12 11 -20 15 -11 13 -12 -11 -1 -20 8 -24 14 -15 20 16 9
24 10 15 1z m-176 -20 c13 -16 12 -17 -3 -4 -10 7 -18 15 -18 17 0 8 8 3 21
-13z m8974 -1303 c3 -6 -1 -7 -9 -4 -18 7 -21 14 -7 14 6 0 13 -4 16 -10z
m-5458 -545 c0 -8 -4 -12 -9 -9 -5 3 -6 10 -3 15 9 13 12 11 12 -6z m374
-2612 c8 -9 9 -14 2 -10 -6 4 -19 0 -27 -9 -18 -18 -21 -11 -6 17 13 23 14 23
31 2z m4279 -743 c0 -5 -5 -10 -11 -10 -5 0 -7 5 -4 10 3 6 8 10 11 10 2 0 4
-4 4 -10z m-4066 -558 c3 -5 -1 -9 -9 -9 -8 0 -12 4 -9 9 3 4 7 8 9 8 2 0 6
-4 9 -8z m3727 -199 c11 -15 11 -16 -1 -6 -9 9 -19 9 -34 2 -20 -10 -20 -10
-2 5 24 19 21 20 37 -1z m-546 -23 c3 -5 1 -10 -4 -10 -6 0 -11 5 -11 10 0 6
2 10 4 10 3 0 8 -4 11 -10z m62 -5 c4 -4 2 -5 -4 -1 -16 9 -17 -6 -2 -21 8 -8
8 -13 0 -18 -6 -3 -11 -3 -10 2 4 16 -13 43 -24 36 -5 -3 -7 -1 -4 5 8 12 32
10 44 -3z m20 -45 c-1 -11 -5 -20 -9 -20 -10 0 -10 4 -2 24 8 22 13 20 11 -4z
m-93 -28 c3 -5 -1 -9 -9 -9 -8 0 -12 4 -9 9 3 4 7 8 9 8 2 0 6 -4 9 -8z m36
-2 c0 -5 -2 -10 -4 -10 -3 0 -8 5 -11 10 -3 6 -1 10 4 10 6 0 11 -4 11 -10z
m107 4 c-3 -3 -12 -4 -19 -1 -8 3 -5 6 6 6 11 1 17 -2 13 -5z"/>
<path d="M1810 7836 c0 -2 8 -10 18 -17 15 -13 16 -12 3 4 -13 16 -21 21 -21
13z"/>
<path d="M9540 8921 c0 -6 4 -11 9 -11 6 0 8 -10 6 -21 -3 -12 -1 -19 2 -15
13 12 11 35 -3 47 -10 8 -14 8 -14 0z"/>
<path d="M2380 7946 c0 -2 8 -10 18 -17 15 -13 16 -12 3 4 -13 16 -21 21 -21
13z"/>
<path d="M3006 7134 c-5 -14 -4 -15 9 -4 17 14 19 20 6 20 -5 0 -12 -7 -15
-16z"/>
<path d="M9957 7009 c7 -7 15 -10 18 -7 3 3 -2 9 -12 12 -14 6 -15 5 -6 -5z"/>
<path d="M10955 6270 c3 -5 8 -10 11 -10 2 0 4 5 4 10 0 6 -5 10 -11 10 -5 0
-7 -4 -4 -10z"/>
<path d="M11285 5940 c3 -5 8 -10 11 -10 2 0 4 5 4 10 0 6 -5 10 -11 10 -5 0
-7 -4 -4 -10z"/>
<path d="M9240 1860 c-12 -7 -10 -9 7 -7 12 0 19 5 17 9 -6 10 -6 10 -24 -2z"/>
<path d="M9279 1833 c-13 -16 -12 -17 4 -4 16 13 21 21 13 21 -2 0 -10 -8 -17
-17z"/>
<path d="M9157 1823 c10 -3 9 -8 -2 -20 -24 -24 -17 -37 10 -19 14 9 31 13 38
9 17 -11 38 -13 32 -3 -3 5 -1 11 5 15 5 3 10 11 10 18 0 6 -7 1 -16 -11 l-15
-22 -29 20 c-15 11 -32 20 -37 19 -4 0 -2 -3 4 -6z"/>
</g>
</svg>
